<?xml version="1.0" encoding="utf-8"?>
<!-- Generator: Adobe Illustrator 23.1.0, SVG Export Plug-In . SVG Version: 6.00 Build 0)  -->
<svg version="1.1" xmlns="http://www.w3.org/2000/svg" xmlns:xlink="http://www.w3.org/1999/xlink" x="0px" y="0px"
	 width="342.12px" height="159.34px" viewBox="0 0 342.12 159.34" style="enable-background:new 0 0 342.12 159.34;"
	 xml:space="preserve">
<style type="text/css">
	.st0{fill-rule:evenodd;clip-rule:evenodd;fill:#605C5D;}
	.st1{fill:#605C5D;}
	.st2{fill:url(#SVGID_1_);}
	.st3{fill:url(#SVGID_2_);}
	.st4{fill:url(#SVGID_3_);}
</style>
<g id="BG">
</g>
<g id="LEVEL5_LOGO">
	<g>
		<g>
			<g>
				<path class="st0" d="M68,133.06h36.42v-6.13H68c-3.46,0-6.45,1.92-8.41,5.39c-1.6,2.83-2.45,6.55-2.45,10.74
					c0,4.18,0.85,7.9,2.45,10.73c1.96,3.48,4.95,5.4,8.41,5.4h36.42v-6.13H68c-2.2,0-3.94-2.83-4.53-6.94h39.32V140H63.46
					C64.05,135.89,65.8,133.06,68,133.06z"/>
				<path class="st0" d="M182.39,133.06h36.42v-6.13h-36.42c-3.46,0-6.45,1.92-8.42,5.39c-1.6,2.83-2.45,6.55-2.45,10.74
					c0,4.18,0.85,7.9,2.45,10.73c1.96,3.48,4.95,5.4,8.42,5.4h36.42v-6.13h-36.42c-2.2,0-3.95-2.83-4.54-6.94h39.31V140h-39.31
					C178.44,135.89,180.19,133.06,182.39,133.06z"/>
				<path class="st0" d="M294.64,126.96v19.15H334c1.76,0,2.03,2.23,2.03,3.57c0,0.57-0.09,3.47-2.03,3.47l-39.1,0.01v6.08H334
					c4.77,0,8.11-3.94,8.11-9.56c0-5.79-3.26-9.66-8.11-9.66c0,0-28.17,0-33.27,0c0-2.5,0-4.49,0-6.99c5.24,0,39.43,0,39.43,0v-6.08
					H294.64z"/>
				<g>
					<path class="st1" d="M41.99,146.02c-1.32,7.18-3.75,7.19-5.7,7.19c0,0-25.15,0-30.17,0c0-4.93,0-26.74,0-26.74H0v32.86h36.29
						c7.03,0,10.5-4.3,11.91-13.31H41.99z"/>
				</g>
				<g>
					<path class="st1" d="M273.89,146.02c-1.33,7.18-3.76,7.19-5.7,7.19c0,0-25.15,0-30.17,0c0-4.93,0-26.74,0-26.74h-6.12v32.86
						h36.29c7.03,0,10.5-4.3,11.91-13.31H273.89z"/>
				</g>
				<g>
					<polygon class="st1" points="136.72,159.34 142.19,159.34 165.23,126.48 157.72,126.48 139.45,153.06 121.19,126.48 
						113.67,126.48 					"/>
				</g>
			</g>
		</g>
		<g>
			<g>
				
					<linearGradient id="SVGID_1_" gradientUnits="userSpaceOnUse" x1="495.9193" y1="301.8959" x2="495.9193" y2="156.351" gradientTransform="matrix(0.7649 0 0 0.7649 -243.065 -119.8255)">
					<stop  offset="0" style="stop-color:#E1DFE0"/>
					<stop  offset="0.0175" style="stop-color:#DDDBDC"/>
					<stop  offset="0.2178" style="stop-color:#B9B6B7"/>
					<stop  offset="0.4183" style="stop-color:#9C999A"/>
					<stop  offset="0.6166" style="stop-color:#878586"/>
					<stop  offset="0.8117" style="stop-color:#7B7879"/>
					<stop  offset="1" style="stop-color:#777475"/>
				</linearGradient>
				<path class="st2" d="M107.17,28.02v74.82c0,4.5,3.65,8.14,8.15,8.14h50.04L107.17,28.02z"/>
				
					<linearGradient id="SVGID_2_" gradientUnits="userSpaceOnUse" x1="585.9536" y1="301.8907" x2="585.9536" y2="156.3584" gradientTransform="matrix(0.7649 0 0 0.7649 -243.065 -119.8255)">
					<stop  offset="0" style="stop-color:#E1DFE0"/>
					<stop  offset="0.0175" style="stop-color:#DDDBDC"/>
					<stop  offset="0.2178" style="stop-color:#B9B6B7"/>
					<stop  offset="0.4183" style="stop-color:#9C999A"/>
					<stop  offset="0.6166" style="stop-color:#878586"/>
					<stop  offset="0.8117" style="stop-color:#7B7879"/>
					<stop  offset="1" style="stop-color:#777475"/>
				</linearGradient>
				<path class="st3" d="M192.11,110.99h17.9c4.5,0,8.14-3.65,8.14-8.14V73.88L192.11,110.99z"/>
				
					<linearGradient id="SVGID_3_" gradientUnits="userSpaceOnUse" x1="539.0769" y1="301.8979" x2="539.0769" y2="156.3555" gradientTransform="matrix(0.7649 0 0 0.7649 -243.065 -119.8255)">
					<stop  offset="0" style="stop-color:#E1DFE0"/>
					<stop  offset="0.0175" style="stop-color:#DDDBDC"/>
					<stop  offset="0.2178" style="stop-color:#B9B6B7"/>
					<stop  offset="0.4183" style="stop-color:#9C999A"/>
					<stop  offset="0.6166" style="stop-color:#878586"/>
					<stop  offset="0.8117" style="stop-color:#7B7879"/>
					<stop  offset="1" style="stop-color:#777475"/>
				</linearGradient>
				<path class="st4" d="M120.4,0h89.62c4.5,0,8.14,3.65,8.14,8.15v19.44L178.74,84.9L120.4,0z"/>
			</g>
		</g>
	</g>
</g>
</svg>
